<svg width="512" height="512" xmlns="http://www.w3.org/2000/svg" stroke-width="0" fill="currentColor" stroke="currentColor">

 <g>
  <title>Layer 1</title>
  <rect rx="100" fill="#ffffff" stroke="null" id="svg_2" height="512" width="512" y="0" x="0"/>
  <path stroke="null" id="svg_1" d="m209.03342,99.03491c-50.74688,-0.29145 -101.5452,9.7722 -151.14342,29.08516l3.24883,17.31566l286.41987,0l3.42884,-17.22994c-46.54655,-19.47583 -94.20748,-28.88801 -141.95412,-29.17089zm201.01595,44.85785c-24.43051,0 -44.14636,19.80157 -44.14636,44.14636c0,24.25907 19.71585,44.06064 44.14636,44.06064c24.25907,0 44.06064,-19.80157 44.06064,-44.06064c0,-24.34479 -19.80157,-44.14636 -44.06064,-44.14636zm0,17.82999c14.40114,0 26.23065,11.82951 26.23065,26.31637s-11.82951,26.23065 -26.23065,26.23065s-26.23065,-11.74379 -26.23065,-26.23065c0,-14.48686 11.82951,-26.31637 26.23065,-26.31637zm-346.64751,3.94317l0,17.82999l281.84236,0l0,-17.82999l-281.84236,0zm1.48297,38.40305l0,208.55941l17.8557,0l0,-208.55941l-17.8557,0zm260.64354,0l0,208.55941l17.91571,0l0,-208.55941l-17.91571,0zm75.52028,47.5752l0,160.81276l17.82999,0l0,-160.81276l-17.82999,0zm-271.47868,79.37773c-14.11826,0 -25.58774,11.48663 -25.58774,25.63061l0,27.17358l34.58846,0l0,29.14517l17.82999,0l0,-29.14517l95.9219,0l0,29.14517l17.82999,0l0,-29.14517l34.5456,0l0,-27.17358c0,-14.14398 -11.4009,-25.63061 -25.54488,-25.63061l-149.5833,0z"/>
 </g>
</svg>