<svg width="564" height="564" xmlns="http://www.w3.org/2000/svg">

 <g>
  <title>Layer 1</title>
  <rect rx="60" id="svg_4" height="564" width="564" y="0" stroke="#000" fill="#fff"/>
  <g stroke="null">
   <path stroke="null" d="m464.60936,181.24999l-6.29687,0l0,-37.78125c0,-35.2625 -78.08125,-62.96875 -176.31249,-62.96875s-176.31249,27.70625 -176.31249,62.96875l0,37.78125l-6.29687,0c-10.4292,0 -18.89062,8.45355 -18.89062,18.89062l0,62.96875c0,10.4292 8.46143,18.89062 18.89062,18.89062l6.29687,0l0,125.9375c0,13.90822 11.27928,25.1875 25.1875,25.1875l0,25.1875c0,13.90822 11.27928,25.1875 25.1875,25.1875l25.1875,0c13.90822,0 25.1875,-11.27928 25.1875,-25.1875l0,-25.1875l151.125,0l0,25.1875c0,13.90822 11.27928,25.1875 25.1875,25.1875l25.1875,0c13.90822,0 25.1875,-11.27928 25.1875,-25.1875l0,-25.1875l5.0375,0c12.59375,0 20.15,-10.075 20.15,-20.15l0,-130.975l6.29687,0c10.4292,0 18.89062,-8.46143 18.89062,-18.89062l0,-62.96875c0,-10.43707 -8.46143,-18.89062 -18.89062,-18.89062zm-295.95312,214.09374c-13.90822,0 -25.1875,-11.27928 -25.1875,-25.1875s11.27928,-25.1875 25.1875,-25.1875s25.1875,11.27928 25.1875,25.1875s-11.27928,25.1875 -25.1875,25.1875zm12.59375,-88.15625c-13.90822,0 -25.1875,-11.27928 -25.1875,-25.1875l0,-100.75c0,-13.90822 11.27928,-25.1875 25.1875,-25.1875l201.49999,0c13.90822,0 25.1875,11.27928 25.1875,25.1875l0,100.75c0,13.90822 -11.27928,25.1875 -25.1875,25.1875l-201.49999,0zm214.09374,88.15625c-13.90822,0 -25.1875,-11.27928 -25.1875,-25.1875s11.27928,-25.1875 25.1875,-25.1875s25.1875,11.27928 25.1875,25.1875s-11.27928,25.1875 -25.1875,25.1875z"/>
  </g>
 </g>
</svg>